<?xml version="1.0" encoding="UTF-8" standalone="no"?>
<svg
   xmlns:dc="http://purl.org/dc/elements/1.1/"
   xmlns:cc="http://creativecommons.org/ns#"
   xmlns:rdf="http://www.w3.org/1999/02/22-rdf-syntax-ns#"
   xmlns:svg="http://www.w3.org/2000/svg"
   xmlns="http://www.w3.org/2000/svg"
   xmlns:sodipodi="http://sodipodi.sourceforge.net/DTD/sodipodi-0.dtd"
   xmlns:inkscape="http://www.inkscape.org/namespaces/inkscape"
   width="16"
   height="16"
   viewBox="0 0 16 16"
   version="1.1"
   id="svg13"
   sodipodi:docname="draw-item-visible-no-symbolic.svg"
   inkscape:version="1.0.1 (3bc2e813f5, 2020-09-07)">
  <metadata
     id="metadata17">
    <rdf:RDF>
      <cc:Work
         rdf:about="">
        <dc:format>image/svg+xml</dc:format>
        <dc:type
           rdf:resource="http://purl.org/dc/dcmitype/StillImage" />
        <dc:title>text</dc:title>
      </cc:Work>
    </rdf:RDF>
  </metadata>
  <sodipodi:namedview
     pagecolor="#ffffff"
     bordercolor="#666666"
     borderopacity="1"
     objecttolerance="10"
     gridtolerance="10"
     guidetolerance="10"
     inkscape:pageopacity="0"
     inkscape:pageshadow="2"
     inkscape:window-width="1920"
     inkscape:window-height="1016"
     id="namedview15"
     showgrid="true"
     inkscape:showpageshadow="false"
     inkscape:zoom="22.627417"
     inkscape:cx="8.6878365"
     inkscape:cy="7.3027141"
     inkscape:window-x="0"
     inkscape:window-y="27"
     inkscape:window-maximized="1"
     inkscape:current-layer="svg13"
     inkscape:document-rotation="0"
     showguides="true"
     inkscape:guide-bbox="true">
    <inkscape:grid
       type="xygrid"
       id="grid824" />
    <sodipodi:guide
       position="12,14"
       orientation="0,-1"
       id="guide10" />
    <sodipodi:guide
       position="18.6875,2"
       orientation="0,-1"
       id="guide12" />
    <sodipodi:guide
       position="2,7.53125"
       orientation="1,0"
       id="guide14" />
    <sodipodi:guide
       position="14,8.34375"
       orientation="1,0"
       id="guide16" />
  </sodipodi:namedview>
  <!-- Generator: Sketch 47.1 (45422) - http://www.bohemiancoding.com/sketch -->
  <title
     id="title2">text</title>
  <desc
     id="desc4">Created with Sketch.</desc>
  <defs
     id="defs6" />
  <path
     id="path82"
     style="fill:#666666;fill-opacity:1;stroke:none;stroke-width:1.24843px;stroke-linecap:butt;stroke-linejoin:miter;stroke-opacity:1"
     d="m 8.0016982,4.6424144 c -3.9279215,-0.00253 -6.0153696,3.1430123 -6.0153696,3.1430123 0,0 2.2606716,3.5965423 6.0153696,3.5965423 3.7546978,0 5.9982998,-3.5965423 5.9983018,-3.5965423 0,0 -2.07038,-3.1404832 -5.9983018,-3.1430123 z m -0.00975,0.9899635 A 2.3793243,2.3793243 0 0 1 10.371759,8.0121917 2.3793243,2.3793243 0 0 1 7.9919448,10.392005 2.3793243,2.3793243 0 0 1 5.612131,8.0121917 2.3793243,2.3793243 0 0 1 7.9919448,5.6323779 Z m 0.00244,0.9631419 A 1.4173504,1.4173504 0 0 0 6.5752729,8.0121917 1.4173504,1.4173504 0 0 0 7.9943831,9.4288636 1.4173504,1.4173504 0 0 0 9.4110551,8.0121917 1.4173504,1.4173504 0 0 0 7.9943831,6.5955198 Z" />
  <path
     style="fill:#666666;fill-opacity:1;stroke:none;stroke-width:0.882771px;stroke-linecap:butt;stroke-linejoin:miter;stroke-opacity:1"
     d="M 6.1912456,14.242135 8.6880994,1.3417232 9.9365263,1.7578655 7.4396725,14.658277 Z"
     id="path931" />
</svg>
