<?xml version="1.0" encoding="UTF-8" standalone="no"?>
<svg
   xmlns:dc="http://purl.org/dc/elements/1.1/"
   xmlns:cc="http://creativecommons.org/ns#"
   xmlns:rdf="http://www.w3.org/1999/02/22-rdf-syntax-ns#"
   xmlns:svg="http://www.w3.org/2000/svg"
   xmlns="http://www.w3.org/2000/svg"
   xmlns:sodipodi="http://sodipodi.sourceforge.net/DTD/sodipodi-0.dtd"
   xmlns:inkscape="http://www.inkscape.org/namespaces/inkscape"
   width="16"
   height="16"
   viewBox="0 0 16 16"
   version="1.1"
   id="svg13"
   sodipodi:docname="shape-indicator-symbolic.svg"
   inkscape:version="1.0.2 (e86c870879, 2021-01-15)">
  <metadata
     id="metadata17">
    <rdf:RDF>
      <cc:Work
         rdf:about="">
        <dc:format>image/svg+xml</dc:format>
        <dc:type
           rdf:resource="http://purl.org/dc/dcmitype/StillImage" />
        <dc:title>text</dc:title>
      </cc:Work>
    </rdf:RDF>
  </metadata>
  <sodipodi:namedview
     pagecolor="#ffffff"
     bordercolor="#666666"
     borderopacity="1"
     objecttolerance="10"
     gridtolerance="10"
     guidetolerance="10"
     inkscape:pageopacity="0"
     inkscape:pageshadow="2"
     inkscape:window-width="1920"
     inkscape:window-height="1013"
     id="namedview15"
     showgrid="true"
     inkscape:showpageshadow="false"
     inkscape:zoom="13.906434"
     inkscape:cx="-5.6146304"
     inkscape:cy="7.1956898"
     inkscape:window-x="0"
     inkscape:window-y="30"
     inkscape:window-maximized="1"
     inkscape:current-layer="svg13"
     inkscape:document-rotation="0">
    <inkscape:grid
       type="xygrid"
       id="grid824" />
  </sodipodi:namedview>
  <!-- Generator: Sketch 47.1 (45422) - http://www.bohemiancoding.com/sketch -->
  <title
     id="title2">text</title>
  <desc
     id="desc4">Created with Sketch.</desc>
  <defs
     id="defs6">
    <rect
       x="-44"
       y="-11"
       width="69"
       height="47"
       id="rect835" />
  </defs>
  <g
     aria-label="fx"
     id="text833"
     style="font-style:normal;font-weight:normal;font-size:40px;line-height:1.25;font-family:sans-serif;white-space:pre;shape-inside:url(#rect835);fill:#666666;fill-opacity:1;stroke:none">
    <path
       d="m 1.087473,13.548923 v -0.149297 h 0.1940875 q 0.6569099,0 0.9405752,-0.268736 0.2836654,-0.268735 0.2836654,-0.880856 V 5.6958642 H 1.1471924 V 5.5465664 H 2.5058011 V 4.8000779 q 0,-1.3287497 0.7016988,-2.0304489 Q 3.9092,2.053 5.327528,2.053 q 0.9555058,0 1.4332586,0.2985955 0.4777516,0.2836656 0.4777516,0.7464885 0,0.4031038 -0.3433848,0.6270504 -0.3433848,0.2090168 -0.8808558,0.2090168 0,-0.9555054 -0.2239472,-1.3436794 -0.2090167,-0.3881741 -0.7464877,-0.3881741 -0.6270502,0 -0.8808571,0.5524016 Q 3.9092,3.292171 3.9092,4.66571 V 5.5465664 H 6.0142976 V 5.6958642 H 3.9092 v 6.4795208 q 0,0.65691 0.2836653,0.940576 0.2836654,0.283665 0.9405753,0.283665 h 0.5673319 v 0.149297 z"
       style="font-style:normal;font-variant:normal;font-weight:normal;font-stretch:normal;font-family:'Noto Serif Display';-inkscape-font-specification:'Noto Serif Display';fill:#666666;fill-opacity:1;stroke-width:0.373244"
       id="path839" />
    <path
       d="m 6.2680958,13.548923 v -0.149297 h 0.358314 q 0.4478931,0 0.746489,-0.194087 0.3135251,-0.209017 0.7016988,-0.731559 L 10.045328,9.711973 7.9700892,6.487142 Q 7.6864239,6.0392489 7.4176877,5.8750215 7.1489528,5.6958642 6.7458486,5.6958642 H 6.5517611 V 5.5465664 h 3.7921619 v 0.1492978 h -0.104507 q -0.8509974,0 -0.8509974,0.3583144 0,0.134368 0.089583,0.3284551 0.089583,0.1791572 0.2538056,0.4329633 L 10.985909,8.741538 12.19522,7.0395435 q 0.462822,-0.6419801 0.462822,-0.9405756 0,-0.4031037 -0.940575,-0.4031037 h -0.64198 V 5.5465664 h 3.26962 V 5.6958642 H 14.13609 q -0.447893,0 -0.761418,0.2090167 -0.313525,0.194087 -0.68677,0.7166291 l -1.612415,2.254396 2.433553,3.717513 q 0.298596,0.462822 0.537472,0.641979 0.238876,0.164228 0.582261,0.164228 h 0.119432 v 0.149297 h -3.85188 v -0.149297 h 0.149298 q 0.522542,0 0.746488,-0.08958 0.223947,-0.08958 0.223947,-0.298596 0,-0.179157 -0.164228,-0.462822 -0.149297,-0.283662 -0.403104,-0.671836 L 10.134906,9.86127 8.5672809,12.055946 q -0.4628236,0.64198 -0.4628236,0.940576 0,0.403104 0.9405765,0.403104 h 0.7763474 v 0.149297 z"
       style="font-style:normal;font-variant:normal;font-weight:normal;font-stretch:normal;font-family:'Noto Serif Display';-inkscape-font-specification:'Noto Serif Display';fill:#666666;fill-opacity:1;stroke-width:0.373244"
       id="path841" />
  </g>
</svg>
